# xmcd
#
# Track frame offsets:
#	150
#	43607
#	64952
#	81747
#
# Disc length: 1473 seconds
#
# Revision: 1
# Processed by: cddbd v1.5.1PL0 Copyright (c) Steve Scherf et al.
# Submitted via: CDex 1.50Beta5
#
DISCID=3605bf04
DTITLE=白竜 - 逆流
DYEAR=1900
DGENRE=
TTITLE0=逆流
TTITLE1=アリランの唄
TTITLE2=ほうせん花
TTITLE3=逆流 韓国語
EXTD=
EXTT0=
EXTT1=
EXTT2=
EXTT3=
PLAYORDER=
